<svg width="30" height="30" viewBox="0 0 30 30" fill="none" xmlns="http://www.w3.org/2000/svg">
<path fill-rule="evenodd" clip-rule="evenodd" d="M27.5 7.14992L21.75 2.32483L20.1375 4.23737L25.8875 9.06246L27.5 7.14992ZM9.85 4.23739L8.25 2.32483L2.5 7.13747L4.1125 9.05003L9.85 4.23739ZM15 5.00009C8.7875 5.00009 3.75 10.0376 3.75 16.2501C3.75 22.4626 8.775 27.5001 15 27.5001C21.2125 27.5001 26.25 22.4626 26.25 16.2501C26.25 10.0376 21.2125 5.00009 15 5.00009ZM15 25.0002C10.1625 25.0002 6.25 21.0876 6.25 16.2501C6.25 11.4125 10.1625 7.5 15 7.5C19.8375 7.5 23.75 11.4125 23.75 16.2501C23.75 21.0876 19.8375 25.0002 15 25.0002ZM13.175 18.1625L10.5125 15.5001L9.1875 16.825L13.1625 20.8L20.6625 13.3001L19.3375 11.9751L13.175 18.1625Z" fill="#000"/>
</svg>
