<svg width="16" height="18" viewBox="0 0 16 18" fill="none" xmlns="http://www.w3.org/2000/svg">
<path d="M9.46094 13.9375C9.19531 13.9375 9.0625 13.8047 9.0625 13.5391V6.36719C9.0625 6.10156 9.19531 5.96875 9.46094 5.96875H10.2578C10.5234 5.96875 10.6562 6.10156 10.6562 6.36719V13.5391C10.6562 13.8047 10.5234 13.9375 10.2578 13.9375H9.46094ZM14.9062 2.78125C15.0612 2.78125 15.1829 2.83659 15.2715 2.94727C15.3822 3.03581 15.4375 3.15755 15.4375 3.3125V3.84375C15.4375 3.9987 15.3822 4.13151 15.2715 4.24219C15.1829 4.33073 15.0612 4.375 14.9062 4.375H14.375V15.5312C14.375 15.974 14.2201 16.3503 13.9102 16.6602C13.6003 16.9701 13.224 17.125 12.7812 17.125H3.21875C2.77604 17.125 2.39974 16.9701 2.08984 16.6602C1.77995 16.3503 1.625 15.974 1.625 15.5312V4.375H1.09375C0.938802 4.375 0.80599 4.33073 0.695312 4.24219C0.606771 4.13151 0.5625 3.9987 0.5625 3.84375V3.3125C0.5625 3.15755 0.606771 3.03581 0.695312 2.94727C0.80599 2.83659 0.938802 2.78125 1.09375 2.78125H3.81641L4.94531 0.888672C5.07812 0.689453 5.27734 0.51237 5.54297 0.357422C5.80859 0.202474 6.07422 0.125 6.33984 0.125H9.66016C9.83724 0.125 10.0143 0.158203 10.1914 0.224609C10.3685 0.291016 10.5345 0.390625 10.6895 0.523438C10.8444 0.634115 10.9661 0.755859 11.0547 0.888672L12.1836 2.78125H14.9062ZM6.27344 1.81836L5.67578 2.78125H10.3242L9.72656 1.81836C9.68229 1.75195 9.62695 1.71875 9.56055 1.71875H6.43945C6.37305 1.71875 6.31771 1.75195 6.27344 1.81836ZM12.7812 15.5312V4.375H3.21875V15.5312H12.7812ZM5.74219 13.9375C5.47656 13.9375 5.34375 13.8047 5.34375 13.5391V6.36719C5.34375 6.10156 5.47656 5.96875 5.74219 5.96875H6.53906C6.80469 5.96875 6.9375 6.10156 6.9375 6.36719V13.5391C6.9375 13.8047 6.80469 13.9375 6.53906 13.9375H5.74219Z" fill="black"/>
</svg>
